<svg width="1889" height="859" viewBox="0 0 1889 859" fill="none" xmlns="http://www.w3.org/2000/svg">
<path d="M1122.54 25.7718C1116.18 16.1546 1100.87 0 1070.04 0C1045.02 0 1024.45 10.0821 1007.86 24.319C1000.95 14.6147 985.692 0 956.375 0C931.214 0 910.526 10.1983 893.878 24.5515C887.05 14.8472 871.796 0 842.218 0C818.538 0 796.573 9.03611 776.902 26.8759C766.007 36.7546 763.682 53.5194 772.428 65.3157C782.655 79.1169 802.267 80.6858 814.558 69.3543C823.739 60.8703 832.804 56.7735 842.247 56.7735H842.334C845.763 56.7735 848.668 59.4757 848.959 62.8751C849.511 69.2963 848.32 79.5527 845.588 90.7389L760.98 337.474C758.946 343.43 758.539 349.968 760.486 355.982C764.409 368.127 775.508 375.798 787.565 375.798H1034.85C1050.4 375.798 1063.94 363.827 1064.4 348.283C1064.9 332.215 1052 319.024 1036.04 319.024H827.72L891.757 132.869C891.873 132.52 891.989 132.171 892.105 131.823C896.87 115.959 921.8 56.7445 956.375 56.7445H956.462C959.862 56.7445 962.767 59.3013 963.058 62.6717C963.784 70.6037 961.808 84.5791 957.45 98.9323C954.167 106.981 952.249 112.85 951.61 114.855L909.393 237.815L909.306 238.077C909.161 238.513 909.074 238.919 908.957 239.326C908.812 239.849 908.638 240.343 908.522 240.866C908.405 241.36 908.347 241.854 908.26 242.377C908.173 242.813 908.086 243.249 908.028 243.684C907.969 244.178 907.94 244.672 907.911 245.166C907.882 245.602 907.824 246.067 907.795 246.503C907.795 246.968 907.795 247.404 907.795 247.868C907.795 248.333 907.795 248.827 907.795 249.292C907.824 249.815 907.911 250.338 907.969 250.861C908.028 251.239 908.057 251.646 908.115 252.023C908.231 252.662 908.376 253.273 908.522 253.883C908.58 254.144 908.638 254.435 908.696 254.696C908.841 255.277 909.045 255.829 909.248 256.382C909.335 256.672 909.422 256.992 909.538 257.282C909.742 257.805 909.974 258.299 910.178 258.793C910.323 259.113 910.439 259.461 910.613 259.781C910.846 260.275 911.136 260.74 911.398 261.205C911.572 261.524 911.747 261.844 911.921 262.164C912.153 262.57 912.444 262.948 912.705 263.326C912.967 263.703 913.17 264.081 913.461 264.43C913.693 264.749 913.984 265.069 914.245 265.389C914.565 265.766 914.855 266.173 915.204 266.551C915.495 266.87 915.785 267.132 916.105 267.422C916.454 267.771 916.802 268.149 917.18 268.468C917.471 268.73 917.79 268.962 918.081 269.195C918.487 269.543 918.894 269.892 919.33 270.212C919.65 270.444 919.969 270.648 920.289 270.851C920.754 271.171 921.189 271.461 921.654 271.752C921.974 271.926 922.294 272.1 922.642 272.275C923.165 272.565 923.659 272.827 924.182 273.088C924.502 273.233 924.821 273.35 925.141 273.466C925.722 273.698 926.274 273.96 926.855 274.163C927.378 274.338 927.901 274.483 928.424 274.628C928.831 274.744 929.238 274.89 929.645 274.977C930.371 275.151 931.126 275.267 931.853 275.384C932.056 275.413 932.26 275.471 932.434 275.5C933.335 275.616 934.235 275.674 935.107 275.703C935.136 275.703 935.194 275.703 935.223 275.703C937.867 275.79 940.511 275.471 943.039 274.831C943.155 274.802 943.3 274.773 943.417 274.744C944.085 274.57 944.724 274.338 945.363 274.105C945.567 274.018 945.799 273.989 946.002 273.902C946.525 273.698 947.048 273.466 947.571 273.233C947.891 273.088 948.211 272.972 948.501 272.827C948.937 272.594 949.373 272.362 949.809 272.1C950.157 271.897 950.535 271.723 950.884 271.519C951.232 271.287 951.581 271.054 951.93 270.793C952.337 270.531 952.743 270.27 953.15 269.979C953.382 269.805 953.586 269.602 953.818 269.427C954.312 269.05 954.806 268.643 955.271 268.236C955.387 268.12 955.474 268.004 955.591 267.916C956.143 267.393 956.695 266.841 957.218 266.289C957.305 266.202 957.363 266.115 957.45 266.028C957.973 265.418 958.496 264.808 958.961 264.139C959.077 263.994 959.164 263.849 959.252 263.703C959.687 263.093 960.123 262.454 960.501 261.815C960.733 261.437 960.937 261.001 961.14 260.595C961.373 260.159 961.605 259.723 961.838 259.287C962.128 258.677 962.36 258.038 962.593 257.398C962.68 257.137 962.825 256.876 962.913 256.614L963.174 255.859L1005.16 133.827C1006.5 130.573 1008.76 124.82 1011.09 117.469C1021.4 93.2376 1042.73 56.8025 1069.98 56.8025H1070.01C1073.53 56.8025 1076.4 59.5338 1076.69 63.0494C1077.53 73.5964 1073.84 94.2835 1066.17 112.559L1065.45 114.448L1022.91 238.106C1017.8 252.924 1025.7 269.079 1040.52 274.163C1043.57 275.209 1046.68 275.703 1049.76 275.703C1061.53 275.703 1072.54 268.323 1076.6 256.556L1118.85 133.769C1124.57 120.026 1146.37 61.8 1122.51 25.7718H1122.54Z" fill="white"/>
<path d="M149.023 471.243V624.334C149.023 627.821 146.205 630.639 142.718 630.639H125.024C121.537 630.639 118.719 627.821 118.719 624.334V547.92C118.719 539.958 119.067 537.489 116.336 536.675C113.605 535.862 111.571 537.605 107.155 544.404L79.2621 588.48C78.2742 589.962 76.7634 591.153 74.6133 591.153C72.4632 591.153 70.749 589.962 69.7611 588.48L41.8683 544.404C37.4519 537.605 35.4181 535.833 32.6869 536.675C29.9557 537.518 30.3044 539.987 30.3044 547.92V624.334C30.3044 627.821 27.486 630.639 23.9994 630.639H6.30494C2.81833 630.639 0 627.821 0 624.334V471.243C0 467.757 2.81833 464.938 6.30494 464.938H21.2973C23.4184 464.938 25.3651 465.984 26.5273 467.728L69.2091 531.3C70.4003 533.043 72.347 534.089 74.439 534.089H74.5261C76.6471 534.089 78.5938 533.043 79.756 531.3L122.438 467.728C123.6 465.984 125.576 464.938 127.668 464.938H142.66C146.147 464.938 148.965 467.757 148.965 471.243H149.023Z" fill="#82A5B8"/>
<path d="M227.85 471.185V624.276C227.85 627.763 225.002 630.581 221.545 630.581H201.322C197.836 630.581 195.017 627.763 195.017 624.276V471.185C195.017 467.699 197.836 464.881 201.322 464.881H221.545C225.031 464.881 227.85 467.728 227.85 471.185Z" fill="#82A5B8"/>
<path d="M391.081 621.197C392.185 623.172 392.156 625.526 391.023 627.472C389.86 629.419 387.856 630.581 385.589 630.581H362.461C360.166 630.581 358.045 629.332 356.941 627.327L318.123 557.769L306.501 571.077V624.247C306.501 627.734 303.654 630.552 300.197 630.552H279.974C276.488 630.552 273.669 627.734 273.669 624.247V471.156C273.669 467.67 276.488 464.851 279.974 464.851H300.197C303.683 464.851 306.501 467.699 306.501 471.156V521.102L352.641 468.222C354.529 466.072 357.232 464.822 360.108 464.822H385.27C387.768 464.822 389.977 466.246 391.023 468.512C392.068 470.808 391.691 473.393 390.035 475.282L341.048 531.445L391.081 621.138V621.197Z" fill="#82A5B8"/>
<path d="M457.501 500.879V518.516C457.501 522.002 460.348 524.821 463.806 524.821H505.877C509.364 524.821 512.182 527.639 512.182 531.126V546.292C512.182 549.779 509.364 552.597 505.877 552.597H463.806C460.319 552.597 457.501 555.416 457.501 558.902V593.885C457.501 597.371 460.348 600.19 463.806 600.19H519.911C523.397 600.19 526.216 603.008 526.216 606.495V624.189C526.216 627.676 523.368 630.494 519.911 630.494H433.472C429.985 630.494 427.167 627.676 427.167 624.189V470.546C427.167 467.059 430.015 464.241 433.472 464.241H519.911C523.397 464.241 526.216 467.059 526.216 470.546V488.241C526.216 491.727 523.368 494.545 519.911 494.545H463.806C460.319 494.545 457.501 497.364 457.501 500.85V500.879Z" fill="#82A5B8"/>
<path d="M742.094 604.083V624.305C742.094 627.792 739.276 630.61 735.789 630.61H644.382C640.896 630.61 638.077 627.792 638.077 624.305V471.214C638.077 467.728 640.896 464.909 644.382 464.909H664.605C668.091 464.909 670.91 467.757 670.91 471.214V591.444C670.91 594.931 673.728 597.749 677.215 597.749H735.789C739.276 597.749 742.094 600.567 742.094 604.083V604.083Z" fill="#82A5B8"/>
<path d="M806.045 500.879V518.516C806.045 522.002 808.892 524.821 812.35 524.821H854.421C857.908 524.821 860.726 527.639 860.726 531.126V546.292C860.726 549.779 857.908 552.597 854.421 552.597H812.35C808.863 552.597 806.045 555.416 806.045 558.902V593.885C806.045 597.371 808.892 600.19 812.35 600.19H868.455C871.941 600.19 874.76 603.008 874.76 606.495V624.189C874.76 627.676 871.912 630.494 868.455 630.494H782.016C778.529 630.494 775.711 627.676 775.711 624.189V470.546C775.711 467.059 778.559 464.241 782.016 464.241H868.455C871.941 464.241 874.76 467.059 874.76 470.546V488.241C874.76 491.727 871.912 494.545 868.455 494.545H812.35C808.863 494.545 806.045 497.364 806.045 500.85V500.879Z" fill="#82A5B8"/>
<path d="M1093.46 467.292C1094.65 468.832 1095.08 470.779 1094.62 472.667L1060.42 625.816C1059.72 628.664 1057.2 630.669 1054.29 630.669H1027.47C1024.57 630.669 1022.07 628.722 1021.34 625.903L1003.27 549.663C1002.83 547.949 1001.35 546.816 999.609 546.816C997.866 546.816 996.384 547.978 995.948 549.663L977.876 625.903C977.15 628.722 974.651 630.669 971.745 630.669H944.928C941.993 630.669 939.465 628.664 938.797 625.816L904.599 472.667C904.134 470.779 904.599 468.803 905.791 467.292C906.982 465.752 908.812 464.881 910.759 464.881H929.529C932.492 464.881 935.107 467.002 935.717 469.907L956.463 563.987C956.84 565.76 958.293 566.951 960.094 566.98H960.182C961.954 566.98 963.407 565.847 963.843 564.103L985.75 469.645C986.447 466.827 988.975 464.881 991.881 464.881H1007.42C1010.33 464.881 1012.83 466.827 1013.56 469.645L1035.46 564.103C1035.9 565.847 1037.5 566.98 1039.21 566.98C1041.01 566.951 1042.47 565.731 1042.84 563.987L1063.59 469.907C1064.2 467.002 1066.78 464.881 1069.78 464.881H1088.55C1090.49 464.881 1092.29 465.752 1093.52 467.292H1093.46Z" fill="#82A5B8"/>
<path d="M1278.33 546.351C1278.33 594.437 1243.67 633.516 1201.05 633.516C1158.42 633.516 1123.76 594.408 1123.76 546.351C1123.76 498.294 1158.42 459.186 1201.05 459.186C1243.67 459.186 1278.33 498.294 1278.33 546.351ZM1246.72 546.351C1246.72 515.727 1226.24 490.797 1201.05 490.797C1175.86 490.797 1155.37 515.727 1155.37 546.351C1155.37 576.975 1175.86 601.904 1201.05 601.904C1226.24 601.904 1246.72 576.975 1246.72 546.351Z" fill="#82A5B8"/>
<path d="M1437.24 621.574C1438.17 623.55 1438.02 625.816 1436.86 627.647C1435.7 629.477 1433.69 630.581 1431.51 630.581H1409.11C1406.67 630.581 1404.43 629.158 1403.39 626.978L1377.47 572.384C1376.86 571.077 1375.49 570.234 1374.04 570.234H1353.33C1351.23 570.234 1349.55 571.919 1349.55 574.011V624.276C1349.55 627.763 1346.73 630.581 1343.24 630.581H1323.63C1320.14 630.581 1317.33 627.763 1317.33 624.276V472.057C1317.33 468.57 1320.14 465.752 1323.63 465.752H1385.52C1414.66 465.752 1438.69 488.851 1439.1 517.237C1439.39 536.908 1428.72 554.864 1411.29 564.132L1410.21 564.713L1437.24 621.574V621.574ZM1406.09 515.436C1404.87 505.819 1396.33 496.957 1386.22 496.957H1355.88C1352.4 496.957 1349.58 499.775 1349.58 503.262V533.857C1349.58 537.344 1352.4 540.162 1355.88 540.162H1386.85C1392.43 540.162 1397.72 537.75 1401.41 533.566C1405.1 529.382 1406.79 520.957 1406.09 515.407V515.436Z" fill="#82A5B8"/>
<path d="M1572.98 471.272V488.967C1572.98 492.454 1570.16 495.272 1566.68 495.272H1541.05C1537.56 495.272 1534.74 498.09 1534.74 501.577V624.334C1534.74 627.821 1531.93 630.639 1528.44 630.639H1510.75C1507.26 630.639 1504.44 627.821 1504.44 624.334V501.577C1504.44 498.09 1501.62 495.272 1498.14 495.272H1472.51C1469.02 495.272 1466.2 492.454 1466.2 488.967V471.272C1466.2 467.786 1469.02 464.967 1472.51 464.967H1566.71C1570.19 464.967 1573.01 467.786 1573.01 471.272H1572.98Z" fill="#82A5B8"/>
<path d="M1725.84 471.214V624.305C1725.84 627.792 1723.02 630.61 1719.53 630.61H1699.31C1695.83 630.61 1693.01 627.792 1693.01 624.305V555.387H1639.02V624.305C1639.02 627.792 1636.18 630.61 1632.72 630.61H1612.5C1609.01 630.61 1606.19 627.792 1606.19 624.305V471.214C1606.19 467.728 1609.04 464.909 1612.5 464.909H1632.72C1636.2 464.909 1639.02 467.728 1639.02 471.214V525.082H1693.01V471.214C1693.01 467.728 1695.83 464.909 1699.31 464.909H1719.53C1723.02 464.909 1725.84 467.728 1725.84 471.214Z" fill="#82A5B8"/>
<path d="M1887.76 468.105C1888.9 470.11 1888.84 472.522 1887.65 474.498L1839.44 553.266C1838.83 554.254 1838.51 555.387 1838.51 556.578V624.305C1838.51 627.792 1835.67 630.61 1832.21 630.61H1811.99C1808.5 630.61 1805.68 627.763 1805.68 624.305V552.365C1805.68 551.203 1805.36 550.07 1804.75 549.082L1759.22 474.526C1758 472.551 1757.97 470.168 1759.11 468.134C1760.24 466.13 1762.3 464.909 1764.63 464.909H1788.25C1790.43 464.909 1792.49 466.072 1793.65 467.931L1820.15 511.281C1820.85 512.414 1822.07 513.083 1823.38 513.083C1824.68 513.083 1825.93 512.414 1826.6 511.281L1853.07 467.931C1854.2 466.072 1856.27 464.909 1858.48 464.909H1882.24C1884.57 464.909 1886.6 466.101 1887.76 468.134V468.105Z" fill="#82A5B8"/>
<path d="M352.902 733.697C353.803 734.86 354.123 736.312 353.803 737.736L328.147 852.62C327.624 854.77 325.736 856.251 323.528 856.251H303.422C301.243 856.251 299.354 854.77 298.831 852.678L285.262 795.497C284.943 794.219 283.839 793.347 282.502 793.347C281.166 793.347 280.061 794.219 279.742 795.497L266.173 852.678C265.65 854.77 263.762 856.251 261.582 856.251H241.476C239.268 856.251 237.38 854.77 236.886 852.62L211.23 737.736C210.881 736.312 211.23 734.86 212.131 733.697C213.031 732.564 214.397 731.896 215.85 731.896H229.941C232.179 731.896 234.125 733.465 234.59 735.644L250.135 806.219C250.425 807.555 251.5 808.456 252.866 808.485H252.924C254.261 808.485 255.365 807.642 255.684 806.335L272.129 735.47C272.652 733.349 274.541 731.896 276.72 731.896H288.371C290.55 731.896 292.439 733.378 292.962 735.47L309.407 806.335C309.727 807.642 310.947 808.485 312.225 808.485C313.591 808.485 314.666 807.555 314.956 806.219L330.53 735.644C330.995 733.465 332.942 731.896 335.179 731.896H349.27C350.723 731.896 352.089 732.564 352.989 733.697H352.902Z" fill="white"/>
<path d="M403.516 758.888V772.108C403.516 774.723 405.637 776.844 408.252 776.844H439.806C442.421 776.844 444.542 778.965 444.542 781.58V792.941C444.542 795.556 442.421 797.677 439.806 797.677H408.252C405.637 797.677 403.516 799.798 403.516 802.413V828.649C403.516 831.264 405.637 833.385 408.252 833.385H450.353C452.968 833.385 455.089 835.506 455.089 838.121V851.37C455.089 853.985 452.968 856.106 450.353 856.106H385.531C382.916 856.106 380.795 853.985 380.795 851.37V736.109C380.795 733.494 382.916 731.373 385.531 731.373H450.353C452.968 731.373 455.089 733.494 455.089 736.109V749.358C455.089 751.973 452.968 754.094 450.353 754.094H408.252C405.637 754.094 403.516 756.215 403.516 758.83V758.888Z" fill="white"/>
<path d="M575.057 814.819C575.289 824.523 571.832 834.315 565.585 841.695C559.513 849.017 550.447 854.102 540.743 855.642C537.198 856.223 533.886 856.164 533.828 856.164L489.461 856.048C486.846 856.048 484.725 853.927 484.725 851.312V736.167C484.725 733.552 486.846 731.431 489.461 731.431H528.656C546.699 731.431 561.634 744.593 563.464 762.026C564.219 769.174 562.709 776.263 559.164 782.481L558.757 783.207L559.396 783.701C561.256 785.154 562.97 786.723 564.452 788.35C571.076 795.556 574.941 805.202 575.028 814.819H575.057ZM507.504 773.067C507.504 774.345 507.998 775.537 508.899 776.408C509.799 777.309 510.991 777.803 512.24 777.803H529.935C535.658 777.803 539.058 772.312 539.058 767.024C539.058 761.736 535.397 754.181 529.499 754.181H512.24C509.625 754.181 507.504 756.302 507.504 758.917V773.067V773.067ZM550.36 814.47C550.36 800.292 539.232 797.386 536.239 797.386L512.24 797.27C510.991 797.27 509.799 797.764 508.899 798.664C507.998 799.565 507.504 800.757 507.504 802.035V828.678C507.504 829.957 507.998 831.148 508.899 832.049C509.799 832.95 510.991 833.414 512.24 833.414H512.269L536.879 833.211C540.394 833.211 550.36 828.213 550.36 814.47V814.47Z" fill="white"/>
<path d="M751.624 794.132C751.566 803.633 749.997 812.582 746.859 820.746C743.198 830.305 737.823 838.237 730.85 844.31C727.044 847.651 722.773 850.383 718.095 852.387C713.417 854.392 708.303 855.67 703.306 856.077C702.492 856.135 687.326 856.194 662.745 856.194C660.13 856.194 658.009 854.073 658.009 851.458V736.632C658.009 734.017 660.13 731.896 662.745 731.896L699.209 731.838H699.906C701.011 731.896 702.056 731.925 703.102 732.041C708.1 732.448 713.126 733.785 718.008 735.964C722.627 738.085 726.84 740.845 730.559 744.157C737.504 750.288 742.879 758.104 746.598 767.401C749.91 775.769 751.595 784.776 751.624 794.19V794.132ZM727.015 794.132C727.015 766.239 709.64 754.617 700.952 754.617C700.778 754.617 698.57 754.53 685.495 754.501C684.246 754.501 683.054 754.995 682.154 755.896C681.253 756.796 680.759 757.987 680.759 759.266V828.94C680.759 830.218 681.253 831.41 682.154 832.31C683.054 833.211 684.246 833.705 685.495 833.705C698.802 833.676 701.098 833.618 701.185 833.589C706.182 833.182 727.015 828.068 727.015 794.19V794.132Z" fill="white"/>
<path d="M803.691 758.888V772.108C803.691 774.723 805.812 776.844 808.427 776.844H839.981C842.596 776.844 844.717 778.965 844.717 781.58V792.941C844.717 795.556 842.596 797.677 839.981 797.677H808.427C805.812 797.677 803.691 799.798 803.691 802.413V828.649C803.691 831.264 805.812 833.385 808.427 833.385H850.528C853.143 833.385 855.264 835.506 855.264 838.121V851.37C855.264 853.985 853.143 856.106 850.528 856.106H785.706C783.091 856.106 780.97 853.985 780.97 851.37V736.109C780.97 733.494 783.091 731.373 785.706 731.373H850.528C853.143 731.373 855.264 733.494 855.264 736.109V749.358C855.264 751.973 853.143 754.094 850.528 754.094H808.427C805.812 754.094 803.691 756.215 803.691 758.83V758.888Z" fill="white"/>
<path d="M981.624 733.843C982.525 735.063 982.786 736.603 982.321 738.056L946.148 852.939C945.509 854.915 943.707 856.251 941.615 856.251H917.151C915.059 856.251 913.258 854.915 912.618 852.939L876.445 738.056C875.98 736.603 876.241 735.063 877.142 733.843C878.043 732.622 879.438 731.896 880.948 731.896H896.871C898.933 731.896 900.764 733.233 901.403 735.208L926.681 815.516C927.059 816.737 928.134 817.492 929.383 817.492C930.632 817.492 931.707 816.708 932.085 815.516L957.392 735.208C958.002 733.233 959.833 731.896 961.925 731.896H977.818C979.329 731.896 980.723 732.593 981.624 733.843Z" fill="white"/>
<path d="M1030.99 758.888V772.108C1030.99 774.723 1033.11 776.844 1035.72 776.844H1067.28C1069.89 776.844 1072.01 778.965 1072.01 781.58V792.941C1072.01 795.556 1069.89 797.677 1067.28 797.677H1035.72C1033.11 797.677 1030.99 799.798 1030.99 802.413V828.649C1030.99 831.264 1033.11 833.385 1035.72 833.385H1077.83C1080.44 833.385 1082.56 835.506 1082.56 838.121V851.37C1082.56 853.985 1080.44 856.106 1077.83 856.106H1013C1010.39 856.106 1008.27 853.985 1008.27 851.37V736.109C1008.27 733.494 1010.39 731.373 1013 731.373H1077.83C1080.44 731.373 1082.56 733.494 1082.56 736.109V749.358C1082.56 751.973 1080.44 754.094 1077.83 754.094H1035.72C1033.11 754.094 1030.99 756.215 1030.99 758.83V758.888Z" fill="white"/>
<path d="M1190.24 836.291V851.458C1190.24 854.072 1188.12 856.194 1185.5 856.194H1116.93C1114.32 856.194 1112.2 854.072 1112.2 851.458V736.632C1112.2 734.017 1114.32 731.896 1116.93 731.896H1132.1C1134.72 731.896 1136.84 734.017 1136.84 736.632V826.819C1136.84 829.434 1138.96 831.555 1141.57 831.555H1185.5C1188.12 831.555 1190.24 833.676 1190.24 836.291Z" fill="white"/>
<path d="M1322.15 793.028C1322.15 829.085 1296.14 858.431 1264.18 858.431C1232.22 858.431 1206.22 829.085 1206.22 793.028C1206.22 756.971 1232.22 727.625 1264.18 727.625C1296.14 727.625 1322.15 756.971 1322.15 793.028ZM1298.44 793.028C1298.44 770.045 1283.07 751.363 1264.18 751.363C1245.3 751.363 1229.93 770.045 1229.93 793.028C1229.93 816.01 1245.3 834.693 1264.18 834.693C1283.07 834.693 1298.44 816.01 1298.44 793.028Z" fill="white"/>
<path d="M1442.84 770.22C1443.25 780.97 1439.36 791.139 1431.92 798.897C1424.45 806.655 1414.43 810.926 1403.71 810.926H1378.57C1377 810.926 1375.73 812.204 1375.73 813.773V851.458C1375.73 854.073 1373.61 856.194 1370.99 856.194H1356.11C1353.5 856.194 1351.38 854.073 1351.38 851.458V737.271C1351.38 734.656 1353.5 732.535 1356.11 732.535H1402.69C1424.05 732.535 1442.06 749.445 1442.84 770.22V770.22ZM1418.12 771.382C1418.12 761.329 1411.78 753.397 1401.85 753.397H1380.46C1377.85 753.397 1375.73 755.518 1375.73 758.133V784.544C1375.73 787.159 1377.85 789.28 1380.46 789.28H1401.38C1410.24 789.28 1418.12 781.464 1418.12 771.382Z" fill="white"/>
<path d="M1492.82 758.888V772.108C1492.82 774.723 1494.94 776.844 1497.55 776.844H1529.11C1531.72 776.844 1533.84 778.965 1533.84 781.58V792.941C1533.84 795.556 1531.72 797.677 1529.11 797.677H1497.55C1494.94 797.677 1492.82 799.798 1492.82 802.413V828.649C1492.82 831.264 1494.94 833.385 1497.55 833.385H1539.65C1542.27 833.385 1544.39 835.506 1544.39 838.121V851.37C1544.39 853.985 1542.27 856.106 1539.65 856.106H1474.83C1472.22 856.106 1470.1 853.985 1470.1 851.37V736.109C1470.1 733.494 1472.22 731.373 1474.83 731.373H1539.65C1542.27 731.373 1544.39 733.494 1544.39 736.109V749.358C1544.39 751.973 1542.27 754.094 1539.65 754.094H1497.55C1494.94 754.094 1492.82 756.215 1492.82 758.83V758.888Z" fill="white"/>
<path d="M1663.98 849.424C1664.68 850.906 1664.56 852.62 1663.69 853.985C1662.82 855.351 1661.31 856.194 1659.68 856.194H1642.89C1641.06 856.194 1639.4 855.119 1638.62 853.491L1619.18 812.553C1618.71 811.565 1617.7 810.926 1616.62 810.926H1601.08C1599.51 810.926 1598.23 812.204 1598.23 813.773V851.458C1598.23 854.073 1596.11 856.194 1593.49 856.194H1578.79C1576.18 856.194 1574.06 854.073 1574.06 851.458V737.271C1574.06 734.656 1576.18 732.535 1578.79 732.535H1625.22C1647.07 732.535 1665.09 749.852 1665.41 771.149C1665.61 785.909 1657.62 799.391 1644.54 806.335L1643.73 806.771L1664.01 849.424H1663.98ZM1640.62 769.813C1639.69 762.607 1633.3 755.954 1625.72 755.954H1602.97C1600.35 755.954 1598.23 758.075 1598.23 760.69V783.643C1598.23 786.258 1600.35 788.379 1602.97 788.379H1626.21C1630.39 788.379 1634.37 786.578 1637.13 783.44C1639.89 780.302 1641.17 773.997 1640.62 769.813V769.813Z" fill="white"/>
<path d="M463.834 188.48V194.814C463.834 196.063 464.851 197.08 466.101 197.08H481.238C482.488 197.08 483.505 198.097 483.505 199.346V204.809C483.505 206.058 482.488 207.075 481.238 207.075H466.101C464.851 207.075 463.834 208.092 463.834 209.341V221.922C463.834 223.172 464.851 224.188 466.101 224.188H486.265C487.514 224.188 488.531 225.205 488.531 226.455V232.818C488.531 234.067 487.514 235.084 486.265 235.084H455.176C453.927 235.084 452.91 234.067 452.91 232.818V177.584C452.91 176.335 453.927 175.318 455.176 175.318H486.265C487.514 175.318 488.531 176.335 488.531 177.584V183.947C488.531 185.197 487.514 186.214 486.265 186.214H466.101C464.851 186.214 463.834 187.23 463.834 188.48V188.48Z" fill="white"/>
<path d="M555.59 216.46C555.677 224.682 551.755 230.929 544.491 234.038C541.266 235.433 537.314 236.159 533.014 236.159C525.431 236.159 517.15 233.864 511.891 230.29C511.339 229.912 510.991 229.331 510.932 228.663C510.874 227.995 511.078 227.326 511.572 226.832L516.714 221.515C517.15 221.08 517.731 220.847 518.341 220.847C518.719 220.847 519.126 220.934 519.475 221.138C523.978 223.636 533.45 226.716 539.494 224.13C542.312 222.91 543.968 219.511 543.794 216.576C543.59 213.525 541.789 212.45 532.782 210.562C524.385 208.789 512.037 205.709 511.833 191.589C511.717 184.209 515.756 178.369 523.281 175.289C530.399 172.354 542.225 171.889 552.016 180.257C552.51 180.664 552.801 181.274 552.83 181.942C552.83 182.582 552.597 183.192 552.133 183.657L547.309 188.305C546.496 189.09 545.217 189.148 544.317 188.451C538.971 184.209 531.707 183.715 527.552 185.429C524.559 186.649 523.223 189.41 523.252 191.879C523.31 195.773 525.199 197.661 535.077 199.724C543.155 201.409 555.445 203.298 555.59 216.489V216.46Z" fill="white"/>
<path d="M614.049 177.817V184.18C614.049 185.429 613.032 186.446 611.783 186.446H602.572C601.323 186.446 600.306 187.463 600.306 188.712V232.847C600.306 234.096 599.289 235.113 598.04 235.113H591.677C590.427 235.113 589.41 234.096 589.41 232.847V188.712C589.41 187.463 588.393 186.446 587.144 186.446H577.934C576.684 186.446 575.667 185.429 575.667 184.18V177.817C575.667 176.567 576.684 175.55 577.934 175.55H611.812C613.061 175.55 614.078 176.567 614.078 177.817H614.049Z" fill="white"/>
<path d="M681.485 205.361C681.485 209.922 680.701 214.193 679.219 218.116C677.476 222.707 674.89 226.484 671.549 229.389C669.718 230.987 667.655 232.295 665.418 233.254C663.181 234.212 660.711 234.823 658.329 235.026C657.951 235.055 650.687 235.084 638.891 235.084C637.642 235.084 636.625 234.067 636.625 232.818V177.788C636.625 176.538 637.642 175.521 638.891 175.521H656.702C657.225 175.521 657.718 175.521 658.241 175.579C660.624 175.783 663.036 176.422 665.389 177.468C667.597 178.485 669.631 179.792 671.403 181.39C674.716 184.325 677.302 188.073 679.103 192.547C680.701 196.557 681.515 200.857 681.515 205.39L681.485 205.361ZM669.689 205.361C669.689 191.995 661.379 186.417 657.196 186.417C657.108 186.417 656.033 186.388 649.787 186.359C649.176 186.359 648.624 186.591 648.188 187.027C647.753 187.463 647.52 188.015 647.52 188.625V222.009C647.52 222.619 647.753 223.201 648.188 223.607C648.624 224.043 649.176 224.276 649.787 224.276C656.15 224.276 657.254 224.217 657.312 224.217C659.694 224.014 669.689 221.573 669.689 205.332V205.361Z" fill="white"/>
<path d="M1243.93 226.077V232.44C1243.93 233.951 1242.71 235.171 1241.2 235.171H1209.68C1208.17 235.171 1206.95 233.951 1206.95 232.44V229.273C1206.95 218.232 1215.46 211.404 1222.32 205.913C1228.5 200.945 1232.28 197.632 1232.28 193.71C1232.28 188.451 1228.62 186.475 1226.3 186.475C1222.05 186.475 1219.58 188.335 1218.89 191.967C1218.63 193.274 1217.55 194.262 1216.19 194.262H1209.76C1208.14 194.262 1206.86 192.838 1207.06 191.211C1208.43 179.822 1217.41 174.65 1226.3 174.65C1235.19 174.65 1244.11 181.768 1244.11 193.681C1244.11 203.53 1236.47 209.661 1229.73 215.065C1226.18 217.913 1223.36 220.266 1221.47 222.591C1221.24 222.881 1221.47 223.317 1221.82 223.317H1241.2C1242.71 223.317 1243.93 224.537 1243.93 226.048V226.077Z" fill="white"/>
<path d="M1320.03 205.07C1320.03 222.184 1309.39 236.13 1294.05 236.13C1278.71 236.13 1268.08 222.213 1268.08 205.07C1268.08 187.928 1278.74 174.011 1294.05 174.011C1309.36 174.011 1320.03 187.928 1320.03 205.07ZM1308.67 205.07C1308.67 194.146 1303.12 185.284 1294.05 185.284C1284.99 185.284 1279.44 194.146 1279.44 205.07C1279.44 215.995 1284.99 224.857 1294.05 224.857C1303.12 224.857 1308.67 215.995 1308.67 205.07Z" fill="white"/>
<path d="M1379.68 226.077V232.44C1379.68 233.951 1378.46 235.171 1376.95 235.171H1345.42C1343.91 235.171 1342.69 233.951 1342.69 232.44V229.273C1342.69 218.232 1351.2 211.404 1358.06 205.913C1364.25 200.945 1368.03 197.632 1368.03 193.71C1368.03 188.451 1364.37 186.475 1362.04 186.475C1357.8 186.475 1355.33 188.335 1354.63 191.967C1354.37 193.274 1353.3 194.262 1351.93 194.262H1345.51C1343.88 194.262 1342.6 192.838 1342.81 191.211C1344.17 179.822 1353.15 174.65 1362.04 174.65C1370.93 174.65 1379.85 181.768 1379.85 193.681C1379.85 203.53 1372.21 209.661 1365.47 215.065C1361.93 217.913 1359.11 220.266 1357.22 222.591C1356.99 222.881 1357.22 223.317 1357.57 223.317H1376.95C1378.46 223.317 1379.68 224.537 1379.68 226.048V226.077Z" fill="white"/>
<path d="M1422.51 177.817V232.847C1422.51 234.096 1421.49 235.113 1420.24 235.113H1412.98C1411.73 235.113 1410.71 234.096 1410.71 232.847V189.613L1408.47 190.746C1407.37 191.327 1405.97 190.863 1405.42 189.758L1402.14 183.279C1401.56 182.175 1402.02 180.78 1403.13 180.228L1411.78 175.841C1411.96 175.754 1412.16 175.696 1412.36 175.638C1412.57 175.58 1412.77 175.551 1412.98 175.551H1420.24C1421.49 175.551 1422.51 176.568 1422.51 177.817V177.817Z" fill="white"/>
</svg>
