<svg width="182" height="31" viewBox="0 0 182 31" fill="none" xmlns="http://www.w3.org/2000/svg">
<path d="M27.1884 2.99055C26.7128 2.24623 25.568 1 23.2591 1C21.3871 1 19.8469 1.77854 18.6054 2.87648C18.0883 2.12646 16.9463 1 14.7535 1C12.8704 1 11.3247 1.78709 10.0776 2.89359C9.56605 2.14357 8.42681 1 6.21192 1C4.43945 1 2.79695 1.69584 1.32312 3.07326C0.510162 3.83469 0.333195 5.12941 0.988537 6.03913C1.75449 7.10571 3.22002 7.22549 4.14081 6.35283C4.82934 5.69977 5.5068 5.38037 6.21192 5.38037H6.21745C6.47461 5.38037 6.69029 5.58856 6.71241 5.85092C6.75389 6.34714 6.6654 7.13708 6.46078 8.00118L0.131336 27.0427C-0.0207472 27.5047 -0.0511653 28.0066 0.095388 28.4714C0.388495 29.4097 1.21804 30 2.12225 30H20.6267C21.7908 30 22.8029 29.076 22.8388 27.8783C22.8748 26.6805 21.9097 25.6196 20.7152 25.6196H5.12797L9.91999 11.2551C9.92829 11.2294 9.93659 11.2009 9.94488 11.1752C10.3016 9.95181 12.1653 5.38322 14.7535 5.38322H14.759C15.0134 5.38322 15.2291 5.57999 15.254 5.84236C15.3065 6.4555 15.16 7.53349 14.8337 8.63999C14.5876 9.26168 14.4438 9.71512 14.3968 9.86911L11.239 19.3571L11.2334 19.377C11.2224 19.4113 11.2169 19.4426 11.2058 19.474C11.1947 19.5139 11.1809 19.5538 11.1726 19.5938C11.1643 19.6337 11.1588 19.6708 11.1533 19.7107C11.1477 19.7449 11.1394 19.7763 11.1367 19.8105C11.1311 19.8476 11.1311 19.8846 11.1284 19.9246C11.1284 19.9588 11.1228 19.993 11.1201 20.0272C11.1201 20.0615 11.1201 20.0985 11.1201 20.1327C11.1201 20.1698 11.1201 20.2069 11.1201 20.2411C11.1201 20.281 11.1284 20.321 11.1339 20.3638C11.1367 20.3923 11.1394 20.4236 11.145 20.4522C11.1533 20.5006 11.1643 20.5491 11.1754 20.5976C11.1809 20.6176 11.1837 20.6404 11.1892 20.6603C11.2003 20.706 11.2169 20.7488 11.2307 20.7915C11.239 20.8143 11.2445 20.8372 11.2528 20.86C11.2666 20.8999 11.286 20.937 11.3026 20.9769C11.3136 21.0026 11.3219 21.0282 11.333 21.0539C11.3496 21.091 11.3717 21.128 11.3911 21.1651C11.4049 21.1908 11.4159 21.2136 11.4298 21.2392C11.4491 21.2706 11.4685 21.2991 11.4878 21.3277C11.5072 21.3562 11.5238 21.3847 11.5431 21.4132C11.5625 21.4389 11.5819 21.4617 11.6012 21.4874C11.6261 21.5159 11.6482 21.5473 11.6731 21.5758C11.6952 21.5986 11.7173 21.6214 11.7395 21.6442C11.7671 21.6727 11.792 21.7012 11.8197 21.7269C11.8418 21.7469 11.8639 21.764 11.886 21.784C11.9164 21.8096 11.9469 21.8381 11.98 21.8638C12.0022 21.8809 12.0298 21.8952 12.0519 21.9123C12.0851 21.9351 12.1183 21.9608 12.1542 21.9836C12.1764 21.9978 12.204 22.0092 12.2261 22.0235C12.2648 22.0435 12.3036 22.0663 12.3423 22.0862C12.3644 22.0977 12.3893 22.1062 12.4142 22.1148C12.4556 22.1319 12.4999 22.1518 12.5441 22.1689C12.5828 22.1832 12.6216 22.1918 12.6603 22.2032C12.6907 22.2117 12.7211 22.2231 12.7515 22.2288C12.8068 22.2431 12.8621 22.2516 12.9174 22.2602C12.9313 22.2602 12.9478 22.2659 12.9617 22.2688C13.028 22.2773 13.0944 22.283 13.1608 22.2859H13.1691C13.3681 22.2916 13.5645 22.2688 13.7525 22.2203C13.7608 22.2203 13.7719 22.2174 13.7802 22.2146C13.8299 22.2003 13.8769 22.1832 13.9267 22.1661C13.9433 22.1604 13.9599 22.1547 13.9765 22.149C14.0152 22.1347 14.0539 22.1148 14.0926 22.0976C14.1147 22.0862 14.1396 22.0777 14.1617 22.0663C14.1949 22.0492 14.2281 22.0292 14.2613 22.0092C14.2889 21.995 14.3166 21.9807 14.3415 21.9636C14.3691 21.9465 14.394 21.9265 14.4189 21.9094C14.4493 21.8895 14.4797 21.8695 14.5102 21.8467C14.5267 21.8324 14.5433 21.8182 14.5599 21.8039C14.5959 21.7725 14.6346 21.744 14.6678 21.7098C14.6761 21.7012 14.6844 21.6927 14.6927 21.6841C14.7341 21.6442 14.7756 21.6014 14.8143 21.5586C14.8199 21.5529 14.8254 21.5444 14.8309 21.5387C14.8696 21.4931 14.9083 21.4446 14.9443 21.3933C14.9526 21.3818 14.9581 21.3704 14.9664 21.359C14.9996 21.3106 15.03 21.2621 15.0604 21.2136C15.077 21.1822 15.0908 21.1508 15.1074 21.1195C15.124 21.0853 15.1434 21.0539 15.16 21.0168C15.1821 20.9683 15.1987 20.9199 15.218 20.8714C15.2263 20.8514 15.2346 20.8315 15.2429 20.8086L15.2623 20.7516L18.4035 11.3349C18.5058 11.084 18.6717 10.6391 18.8487 10.0744C19.6202 8.20366 21.2157 5.39463 23.2563 5.39463H23.2591C23.5218 5.39463 23.7375 5.60567 23.7596 5.87659C23.8232 6.6922 23.5467 8.28636 22.9715 9.698L22.9162 9.84345L19.7335 19.3856C19.3519 20.5291 19.9409 21.7754 21.0498 22.1689C21.2793 22.2488 21.5115 22.2887 21.741 22.2887C22.6231 22.2887 23.4471 21.7184 23.7485 20.8115L26.9091 11.3378C27.3377 10.2769 28.9664 5.78533 27.1829 3.00482L27.1884 2.99055Z" fill="#F9F9F9"/>
<path d="M50.2049 0.912793V12.5103C50.2049 12.7735 49.9893 12.9891 49.7261 12.9891H48.3877C48.1245 12.9891 47.9089 12.7735 47.9089 12.5103V6.72273C47.9089 6.12074 47.9341 5.93315 47.7297 5.86875C47.5253 5.80715 47.3685 5.93874 47.0353 6.45394L44.9213 9.7943C44.8457 9.9063 44.7309 9.9959 44.5685 9.9959C44.4061 9.9959 44.2745 9.9035 44.2017 9.7943L42.0878 6.45394C41.7518 5.93874 41.5978 5.80435 41.3934 5.86875C41.1862 5.93035 41.2142 6.11794 41.2142 6.72273V12.5103C41.2142 12.7735 40.9986 12.9891 40.7354 12.9891H39.397C39.1338 12.9891 38.9182 12.7735 38.9182 12.5103V0.912793C38.9182 0.649595 39.1338 0.434 39.397 0.434H40.5338C40.6934 0.434 40.8418 0.512393 40.9314 0.646792L44.1653 5.46555C44.2549 5.59715 44.4033 5.67834 44.5629 5.67834H44.5685C44.7281 5.67834 44.8765 5.59995 44.9661 5.46555L48.2001 0.646792C48.2897 0.515193 48.4381 0.434 48.5977 0.434H49.7345C49.9977 0.434 50.2133 0.649595 50.2133 0.912793H50.2049Z" fill="#82A5B8"/>
<path d="M56.1744 0.909991V12.5075C56.1744 12.7707 55.9588 12.9863 55.6956 12.9863H54.164C53.9008 12.9863 53.6852 12.7707 53.6852 12.5075V0.909991C53.6852 0.646794 53.9008 0.431198 54.164 0.431198H55.6956C55.9588 0.431198 56.1744 0.646794 56.1744 0.909991Z" fill="#82A5B8"/>
<path d="M68.5419 12.2751C68.6259 12.4235 68.6231 12.6027 68.5363 12.7511C68.4495 12.8995 68.2955 12.9863 68.1247 12.9863H66.3747C66.2011 12.9863 66.0415 12.8911 65.9575 12.7399L63.0176 7.47033L62.1384 8.47831V12.5075C62.1384 12.7707 61.9228 12.9863 61.6596 12.9863H60.128C59.8648 12.9863 59.6492 12.7707 59.6492 12.5075V0.909991C59.6492 0.646794 59.8648 0.431198 60.128 0.431198H61.6596C61.9228 0.431198 62.1384 0.646794 62.1384 0.909991V4.69556L65.6355 0.688799C65.7783 0.526401 65.9855 0.431198 66.2011 0.431198H68.1079C68.2983 0.431198 68.4635 0.537597 68.5447 0.711195C68.6259 0.884793 68.5951 1.08079 68.4691 1.22359L64.7591 5.47674L68.5475 12.2723L68.5419 12.2751Z" fill="#82A5B8"/>
<path d="M73.5762 3.15837V4.49396C73.5762 4.75716 73.7918 4.97275 74.055 4.97275H77.2414C77.5046 4.97275 77.7202 5.18835 77.7202 5.45154V6.59953C77.7202 6.86273 77.5046 7.07833 77.2414 7.07833H74.055C73.7918 7.07833 73.5762 7.29393 73.5762 7.55713V10.2059C73.5762 10.4691 73.7918 10.6847 74.055 10.6847H78.3082C78.5714 10.6847 78.787 10.9003 78.787 11.1635V12.5019C78.787 12.7651 78.5714 12.9807 78.3082 12.9807H71.7591C71.4959 12.9807 71.2803 12.7651 71.2803 12.5019V0.859593C71.2803 0.596396 71.4959 0.3808 71.7591 0.3808H78.3082C78.5714 0.3808 78.787 0.596396 78.787 0.859593V2.19798C78.787 2.46118 78.5714 2.67677 78.3082 2.67677H74.055C73.7918 2.67677 73.5762 2.89238 73.5762 3.15557V3.15837Z" fill="#82A5B8"/>
<path d="M95.1388 10.9759V12.5075C95.1388 12.7707 94.9232 12.9863 94.66 12.9863H87.7329C87.4697 12.9863 87.2541 12.7707 87.2541 12.5075V0.909991C87.2541 0.646794 87.4697 0.431198 87.7329 0.431198H89.2645C89.5277 0.431198 89.7433 0.646794 89.7433 0.909991V10.0183C89.7433 10.2815 89.9589 10.4971 90.2221 10.4971H94.66C94.9232 10.4971 95.1388 10.7127 95.1388 10.9759Z" fill="#82A5B8"/>
<path d="M99.9828 3.15837V4.49396C99.9828 4.75716 100.198 4.97275 100.462 4.97275H103.648C103.911 4.97275 104.127 5.18835 104.127 5.45154V6.59953C104.127 6.86273 103.911 7.07833 103.648 7.07833H100.462C100.198 7.07833 99.9828 7.29393 99.9828 7.55713V10.2059C99.9828 10.4691 100.198 10.6847 100.462 10.6847H104.715C104.978 10.6847 105.194 10.9003 105.194 11.1635V12.5019C105.194 12.7651 104.978 12.9807 104.715 12.9807H98.1656C97.9024 12.9807 97.6868 12.7651 97.6868 12.5019V0.859593C97.6868 0.596396 97.9024 0.3808 98.1656 0.3808H104.715C104.978 0.3808 105.194 0.596396 105.194 0.859593V2.19798C105.194 2.46118 104.978 2.67677 104.715 2.67677H100.462C100.198 2.67677 99.9828 2.89238 99.9828 3.15557V3.15837Z" fill="#82A5B8"/>
<path d="M121.758 0.613193C121.851 0.727992 121.881 0.876397 121.848 1.022L119.258 12.6251C119.205 12.8407 119.014 12.9919 118.793 12.9919H116.76C116.542 12.9919 116.351 12.8435 116.295 12.6307L114.923 6.85433C114.89 6.72553 114.778 6.63874 114.646 6.63874C114.515 6.63874 114.4 6.72553 114.369 6.85433L112.997 12.6307C112.944 12.8435 112.753 12.9919 112.532 12.9919H110.499C110.278 12.9919 110.085 12.8407 110.035 12.6251L107.445 1.022C107.411 0.879197 107.445 0.730792 107.534 0.613193C107.627 0.498395 107.764 0.431197 107.91 0.431197H109.332C109.556 0.431197 109.755 0.5908 109.799 0.811998L111.37 7.94072C111.398 8.07512 111.51 8.16472 111.645 8.16752H111.65C111.785 8.16752 111.894 8.08072 111.927 7.94912L113.588 0.792396C113.641 0.579598 113.831 0.431197 114.053 0.431197H115.231C115.45 0.431197 115.643 0.579598 115.696 0.792396L117.357 7.94912C117.39 8.08072 117.511 8.16752 117.639 8.16472C117.777 8.16472 117.886 8.06952 117.914 7.93792L119.487 0.809195C119.535 0.587997 119.731 0.428394 119.955 0.428394H121.377C121.526 0.428394 121.663 0.4956 121.753 0.610399L121.758 0.613193Z" fill="#82A5B8"/>
<path d="M135.766 6.60513C135.766 10.2479 133.14 13.2103 129.912 13.2103C126.683 13.2103 124.057 10.2479 124.057 6.60513C124.057 2.96237 126.683 0 129.912 0C133.14 0 135.766 2.96237 135.766 6.60513ZM133.372 6.60513C133.372 4.28396 131.821 2.39398 129.912 2.39398C128.002 2.39398 126.451 4.28116 126.451 6.60513C126.451 8.92911 128.002 10.8135 129.912 10.8135C131.821 10.8135 133.372 8.92631 133.372 6.60513Z" fill="#82A5B8"/>
<path d="M147.803 12.3031C147.873 12.4515 147.865 12.6251 147.775 12.7651C147.686 12.9051 147.535 12.9891 147.372 12.9891H145.676C145.491 12.9891 145.323 12.8827 145.244 12.7147L143.282 8.57912C143.234 8.47832 143.133 8.41392 143.021 8.41392H141.45C141.291 8.41392 141.165 8.54271 141.165 8.69951V12.5075C141.165 12.7707 140.949 12.9863 140.686 12.9863H139.199C138.936 12.9863 138.72 12.7707 138.72 12.5075V0.974392C138.72 0.711195 138.936 0.4956 139.199 0.4956H143.889C146.096 0.4956 147.915 2.24558 147.946 4.39596C147.969 5.88554 147.159 7.24633 145.838 7.94912L145.757 7.99112L147.803 12.2975V12.3031ZM145.446 4.26156C145.354 3.53356 144.707 2.86157 143.94 2.86157H141.641C141.378 2.86157 141.162 3.07717 141.162 3.34037V5.65875C141.162 5.92195 141.378 6.13754 141.641 6.13754H143.987C144.41 6.13754 144.81 5.95554 145.09 5.63634C145.37 5.31995 145.499 4.68156 145.443 4.25876L145.446 4.26156Z" fill="#82A5B8"/>
<path d="M158.088 0.912793V2.25118C158.088 2.51438 157.872 2.72997 157.609 2.72997H155.666C155.403 2.72997 155.187 2.94558 155.187 3.20877V12.5103C155.187 12.7735 154.971 12.9891 154.708 12.9891H153.37C153.107 12.9891 152.891 12.7735 152.891 12.5103V3.20877C152.891 2.94558 152.675 2.72997 152.412 2.72997H150.469C150.206 2.72997 149.99 2.51438 149.99 2.25118V0.912793C149.99 0.649595 150.206 0.434 150.469 0.434H157.606C157.869 0.434 158.085 0.649595 158.085 0.912793H158.088Z" fill="#82A5B8"/>
<path d="M169.668 0.909991V12.5075C169.668 12.7707 169.453 12.9863 169.19 12.9863H167.658C167.395 12.9863 167.179 12.7707 167.179 12.5075V7.28553H163.089V12.5075C163.089 12.7707 162.873 12.9863 162.61 12.9863H161.078C160.815 12.9863 160.599 12.7707 160.599 12.5075V0.909991C160.599 0.646794 160.815 0.431198 161.078 0.431198H162.61C162.873 0.431198 163.089 0.646794 163.089 0.909991V4.98955H167.179V0.909991C167.179 0.646794 167.395 0.431198 167.658 0.431198H169.19C169.453 0.431198 169.668 0.646794 169.668 0.909991Z" fill="#82A5B8"/>
<path d="M181.938 0.674793C182.025 0.828792 182.019 1.00799 181.93 1.15919L178.278 7.12593C178.234 7.20153 178.208 7.28832 178.208 7.37512V12.5047C178.208 12.7679 177.993 12.9835 177.73 12.9835H176.198C175.935 12.9835 175.719 12.7679 175.719 12.5047V7.05313C175.719 6.96633 175.694 6.87953 175.649 6.80393L172.2 1.15639C172.107 1.00799 172.104 0.825997 172.191 0.671999C172.278 0.518001 172.432 0.428394 172.608 0.428394H174.4C174.566 0.428394 174.722 0.515195 174.809 0.657994L176.817 3.94236C176.87 4.02916 176.962 4.07956 177.063 4.07956C177.164 4.07956 177.256 4.02916 177.307 3.94236L179.312 0.657994C179.398 0.517995 179.555 0.428394 179.72 0.428394H181.521C181.697 0.428394 181.851 0.520801 181.938 0.671999V0.674793Z" fill="#82A5B8"/>
<path d="M48.8105 20.7954C48.8777 20.8822 48.9029 20.9942 48.8777 21.1006L46.9345 29.8057C46.8953 29.9681 46.7525 30.0801 46.5845 30.0801H45.0614C44.8962 30.0801 44.7534 29.9681 44.7142 29.8085L43.6866 25.4769C43.6614 25.3789 43.5774 25.3146 43.4766 25.3146C43.3758 25.3146 43.2918 25.3789 43.2666 25.4769L42.239 29.8085C42.1998 29.9681 42.0542 30.0801 41.8918 30.0801H40.3686C40.2034 30.0801 40.0578 29.9681 40.0186 29.8057L38.0754 21.1006C38.0502 20.9942 38.0754 20.8822 38.1426 20.7954C38.2126 20.7086 38.3134 20.6582 38.4254 20.6582H39.4922C39.6602 20.6582 39.8086 20.7786 39.845 20.9438L41.0238 26.2917C41.0462 26.3925 41.1274 26.4597 41.231 26.4625H41.2366C41.3374 26.4625 41.4214 26.3981 41.4438 26.3001L42.6898 20.9298C42.729 20.7702 42.8746 20.6582 43.037 20.6582H43.9218C44.087 20.6582 44.2298 20.7702 44.269 20.9298L45.5149 26.3001C45.5401 26.4009 45.6297 26.4625 45.7277 26.4625C45.8313 26.4625 45.9125 26.3925 45.9349 26.2917L47.1137 20.9438C47.1473 20.7786 47.2957 20.6582 47.4637 20.6582H48.5305C48.6425 20.6582 48.7433 20.7086 48.8133 20.7954H48.8105Z" fill="#82A5B8"/>
<path d="M52.6437 22.705V23.7074C52.6437 23.9062 52.8061 24.0658 53.0021 24.0658H55.3932C55.592 24.0658 55.7516 24.2254 55.7516 24.4241V25.2865C55.7516 25.4853 55.5892 25.6449 55.3932 25.6449H53.0021C52.8033 25.6449 52.6437 25.8073 52.6437 26.0033V27.9913C52.6437 28.1901 52.8061 28.3497 53.0021 28.3497H56.1912C56.39 28.3497 56.5496 28.5121 56.5496 28.7081V29.7133C56.5496 29.9121 56.3872 30.0717 56.1912 30.0717H51.2773C51.0785 30.0717 50.9189 29.9093 50.9189 29.7133V20.9802C50.9189 20.7814 51.0813 20.6218 51.2773 20.6218H56.1912C56.39 20.6218 56.5496 20.7842 56.5496 20.9802V21.9854C56.5496 22.1842 56.3872 22.3438 56.1912 22.3438H53.0021C52.8033 22.3438 52.6437 22.5062 52.6437 22.7022V22.705Z" fill="#82A5B8"/>
<path d="M65.6411 26.9441C65.6579 27.6805 65.3975 28.4225 64.9244 28.9797C64.4624 29.5341 63.7764 29.9205 63.0428 30.0381C62.774 30.0801 62.522 30.0773 62.5192 30.0773L59.1564 30.0689C58.9604 30.0689 58.798 29.9065 58.798 29.7105V20.9858C58.798 20.787 58.9604 20.6274 59.1564 20.6274H62.1272C63.4936 20.6274 64.6276 21.6242 64.7648 22.9458C64.8207 23.4862 64.7088 24.0238 64.44 24.497L64.4092 24.5502L64.4568 24.5894C64.5996 24.6986 64.7284 24.819 64.8404 24.9422C65.3415 25.4881 65.6355 26.2189 65.6411 26.9469V26.9441ZM60.5228 22.7078V23.7802C60.5228 23.8754 60.5592 23.9678 60.6292 24.035C60.6964 24.1022 60.786 24.1386 60.884 24.1386H62.2252C62.6592 24.1386 62.9168 23.7214 62.9168 23.321C62.9168 22.9206 62.6396 22.3494 62.1916 22.3494H60.884C60.6852 22.3494 60.5256 22.5118 60.5256 22.7078H60.5228ZM63.7708 26.9161C63.7708 25.8409 62.928 25.6225 62.7012 25.6225L60.884 25.6141C60.7888 25.6141 60.6992 25.6506 60.632 25.7178C60.5648 25.785 60.5256 25.8745 60.5256 25.9725V27.9913C60.5256 28.0865 60.562 28.1789 60.632 28.2461C60.6992 28.3133 60.7888 28.3497 60.884 28.3497H60.8868L62.7516 28.3357C63.0176 28.3357 63.7736 27.9577 63.7736 26.9161H63.7708Z" fill="#82A5B8"/>
<path d="M79.0194 25.3761C79.0166 26.0957 78.8962 26.7733 78.6582 27.3921C78.381 28.1173 77.975 28.7165 77.4458 29.1757C77.1574 29.4277 76.8326 29.6349 76.477 29.7889C76.1214 29.9401 75.735 30.0381 75.357 30.0689C75.2954 30.0745 74.1474 30.0773 72.2827 30.0773C72.0839 30.0773 71.9243 29.9149 71.9243 29.7189V21.0166C71.9243 20.8178 72.0839 20.6582 72.2827 20.6582L75.0462 20.6526H75.0994C75.1834 20.6554 75.2618 20.6582 75.343 20.6666C75.721 20.6974 76.1018 20.7982 76.4714 20.9634C76.8214 21.1258 77.1406 21.333 77.4206 21.5822C77.9442 22.047 78.3558 22.6378 78.6358 23.3434C78.8878 23.9762 79.0166 24.6594 79.0166 25.3733L79.0194 25.3761ZM77.1546 25.3761C77.1546 23.2622 75.8386 22.383 75.1778 22.383C75.1638 22.383 74.9958 22.3774 74.0075 22.3746C73.9123 22.3746 73.8227 22.411 73.7555 22.4782C73.6883 22.5454 73.6491 22.6378 73.6491 22.733V28.0109C73.6491 28.1061 73.6855 28.1985 73.7555 28.2657C73.8227 28.3329 73.9123 28.3693 74.0103 28.3693C75.0182 28.3665 75.1918 28.3637 75.2002 28.3609C75.5782 28.3301 77.1574 27.9437 77.1574 25.3761H77.1546Z" fill="#82A5B8"/>
<path d="M82.9646 22.705V23.7074C82.9646 23.9062 83.127 24.0658 83.323 24.0658H85.7141C85.9129 24.0658 86.0725 24.2254 86.0725 24.4241V25.2865C86.0725 25.4853 85.9101 25.6449 85.7141 25.6449H83.323C83.1242 25.6449 82.9646 25.8073 82.9646 26.0033V27.9913C82.9646 28.1901 83.127 28.3497 83.323 28.3497H86.5121C86.7109 28.3497 86.8705 28.5121 86.8705 28.7081V29.7133C86.8705 29.9121 86.7081 30.0717 86.5121 30.0717H81.5982C81.3994 30.0717 81.2398 29.9093 81.2398 29.7133V20.9802C81.2398 20.7814 81.4022 20.6218 81.5982 20.6218H86.5121C86.7109 20.6218 86.8705 20.7842 86.8705 20.9802V21.9854C86.8705 22.1842 86.7081 22.3438 86.5121 22.3438H83.323C83.1242 22.3438 82.9646 22.5062 82.9646 22.7022V22.705Z" fill="#82A5B8"/>
<path d="M96.4464 20.8066C96.5136 20.899 96.5332 21.0166 96.4996 21.1258L93.7585 29.8309C93.7109 29.9821 93.5737 30.0829 93.4169 30.0829H91.5633C91.4065 30.0829 91.2693 29.9821 91.2217 29.8309L88.4805 21.1258C88.4469 21.0166 88.4637 20.899 88.5337 20.8066C88.6037 20.7142 88.7073 20.661 88.8221 20.661H90.0289C90.1857 20.661 90.3229 20.7618 90.3705 20.913L92.2857 26.9973C92.3137 27.0897 92.3949 27.1485 92.4901 27.1485C92.5853 27.1485 92.6665 27.0897 92.6945 26.9973L94.6124 20.913C94.66 20.7618 94.7972 20.661 94.954 20.661H96.158C96.2728 20.661 96.3792 20.7142 96.4464 20.8066Z" fill="#82A5B8"/>
<path d="M100.184 22.705V23.7074C100.184 23.9062 100.347 24.0658 100.543 24.0658H102.934C103.133 24.0658 103.292 24.2254 103.292 24.4241V25.2865C103.292 25.4853 103.13 25.6449 102.934 25.6449H100.543C100.344 25.6449 100.184 25.8073 100.184 26.0033V27.9913C100.184 28.1901 100.347 28.3497 100.543 28.3497H103.732C103.931 28.3497 104.09 28.5121 104.09 28.7081V29.7133C104.09 29.9121 103.928 30.0717 103.732 30.0717H98.818C98.6192 30.0717 98.4596 29.9093 98.4596 29.7133V20.9802C98.4596 20.7814 98.622 20.6218 98.818 20.6218H103.732C103.931 20.6218 104.09 20.7842 104.09 20.9802V21.9854C104.09 22.1842 103.928 22.3438 103.732 22.3438H100.543C100.344 22.3438 100.184 22.5062 100.184 22.7022V22.705Z" fill="#82A5B8"/>
<path d="M112.252 28.5709V29.7189C112.252 29.9177 112.09 30.0773 111.894 30.0773H106.697C106.498 30.0773 106.339 29.9149 106.339 29.7189V21.0166C106.339 20.8178 106.501 20.6582 106.697 20.6582H107.845C108.044 20.6582 108.204 20.8206 108.204 21.0166V27.8513C108.204 28.0501 108.366 28.2097 108.562 28.2097H111.891C112.09 28.2097 112.249 28.3721 112.249 28.5681L112.252 28.5709Z" fill="#82A5B8"/>
<path d="M122.245 25.2921C122.245 28.0249 120.274 30.2481 117.852 30.2481C115.43 30.2481 113.459 28.0249 113.459 25.2921C113.459 22.5594 115.43 20.3362 117.852 20.3362C120.274 20.3362 122.245 22.5594 122.245 25.2921ZM120.448 25.2921C120.448 23.5506 119.283 22.1338 117.852 22.1338C116.421 22.1338 115.257 23.5506 115.257 25.2921C115.257 27.0337 116.421 28.4505 117.852 28.4505C119.283 28.4505 120.448 27.0337 120.448 25.2921Z" fill="#82A5B8"/>
<path d="M131.39 23.5646C131.421 24.3794 131.127 25.1493 130.561 25.7373C129.996 26.3253 129.237 26.6473 128.422 26.6473H126.518C126.401 26.6473 126.303 26.7425 126.303 26.8629V29.7189C126.303 29.9177 126.143 30.0773 125.944 30.0773H124.819C124.62 30.0773 124.46 29.9149 124.46 29.7189V21.067C124.46 20.8682 124.62 20.7086 124.819 20.7086H128.349C129.968 20.7086 131.331 21.9882 131.39 23.5646ZM129.517 23.6514C129.517 22.8898 129.038 22.2878 128.285 22.2878H126.664C126.465 22.2878 126.305 22.4474 126.305 22.6462V24.6482C126.305 24.847 126.465 25.0065 126.664 25.0065H128.249C128.921 25.0065 129.517 24.413 129.517 23.6514Z" fill="#82A5B8"/>
<path d="M135.176 22.705V23.7074C135.176 23.9062 135.338 24.0658 135.534 24.0658H137.925C138.124 24.0658 138.284 24.2254 138.284 24.4241V25.2865C138.284 25.4853 138.121 25.6449 137.925 25.6449H135.534C135.335 25.6449 135.176 25.8073 135.176 26.0033V27.9913C135.176 28.1901 135.338 28.3497 135.534 28.3497H138.723C138.922 28.3497 139.082 28.5121 139.082 28.7081V29.7133C139.082 29.9121 138.919 30.0717 138.723 30.0717H133.809C133.61 30.0717 133.451 29.9093 133.451 29.7133V20.9802C133.451 20.7814 133.613 20.6218 133.809 20.6218H138.723C138.922 20.6218 139.082 20.7842 139.082 20.9802V21.9854C139.082 22.1842 138.919 22.3438 138.723 22.3438H135.534C135.335 22.3438 135.176 22.5062 135.176 22.7022V22.705Z" fill="#82A5B8"/>
<path d="M148.142 29.5649C148.196 29.6769 148.187 29.8057 148.123 29.9121C148.056 30.0157 147.944 30.0801 147.82 30.0801H146.546C146.409 30.0801 146.28 29.9989 146.222 29.8757L144.749 26.7733C144.712 26.6977 144.637 26.6501 144.556 26.6501H143.377C143.259 26.6501 143.161 26.7453 143.161 26.8657V29.7217C143.161 29.9205 143.002 30.0801 142.803 30.0801H141.688C141.49 30.0801 141.33 29.9177 141.33 29.7217V21.0698C141.33 20.871 141.49 20.7114 141.688 20.7114H145.205C146.86 20.7114 148.226 22.0246 148.249 23.6374C148.266 24.7545 147.658 25.7765 146.667 26.3029L146.605 26.3365L148.14 29.5677L148.142 29.5649ZM146.373 23.5338C146.303 22.9878 145.818 22.4838 145.244 22.4838H143.52C143.321 22.4838 143.161 22.6462 143.161 22.8422V24.581C143.161 24.7798 143.324 24.9393 143.52 24.9393H145.281C145.597 24.9393 145.9 24.8021 146.11 24.5641C146.32 24.3261 146.415 23.8474 146.376 23.531L146.373 23.5338Z" fill="#82A5B8"/>
</svg>
